<svg xmlns="http://www.w3.org/2000/svg" width="2468" height="1389" fill="none"><g opacity=".3"><g filter="url(#a)" opacity=".6"><path fill="url(#b)" fill-opacity=".75" d="M972.347 333.34 78.678 150.335A177.15 177.15 0 0 1-24.096 87.474c-85.705-107.095-22.42-266.77 113.38-286.076l949.196-134.94a382.406 382.406 0 0 1 155.41 9.934l512.96 141.349a382.426 382.426 0 0 1 214.36 153.22l338.12 495.837a382.272 382.272 0 0 1 58.67 138.64l2.31 11.245c34.29 142.627-136.24 243.939-245.1 145.616l-66.41-59.98a176.9 176.9 0 0 0-48.09-30.973l-484.05-210.281a382.197 382.197 0 0 0-62.54-20.967L972.347 333.34z"/><path fill="url(#c)" fill-opacity=".6" d="M972.347 333.34 78.678 150.335A177.15 177.15 0 0 1-24.096 87.474c-85.705-107.095-22.42-266.77 113.38-286.076l949.196-134.94a382.406 382.406 0 0 1 155.41 9.934l512.96 141.349a382.426 382.426 0 0 1 214.36 153.22l338.12 495.837a382.272 382.272 0 0 1 58.67 138.64l2.31 11.245c34.29 142.627-136.24 243.939-245.1 145.616l-66.41-59.98a176.9 176.9 0 0 0-48.09-30.973l-484.05-210.281a382.197 382.197 0 0 0-62.54-20.967L972.347 333.34z"/></g><g filter="url(#d)"><path fill="url(#e)" d="M2204.69 563.516c-7.12 11.423-75.9-69.675-198.58-134.736-158.23-83.911-377.46-207.367-634.69-367.587-456.675-284.448-725.018-328.439-708.726-354.596 16.292-26.157 414.416-83.494 871.096 200.954 276.55 218.63 419.61 397.617 533.7 485.836 114.09 88.22 144.54 158.337 137.2 170.129z"/></g><g filter="url(#f)"><path fill="url(#g)" d="M1885.65 530.296c-11.4 16.34-210.73-108.864-452.48-262.602-98.34-62.531-217.03-111.475-322.5-185.035-364.781-254.413-717.906-3.517-701.874-26.504 16.032-22.987 557.947-294.461 922.734-40.048 364.78 254.413 570.15 491.202 554.12 514.189z"/></g><g filter="url(#h)"><path fill="url(#i)" d="M1288.17 279.68c-19.73 29.902-336.667-144.392-707.901-389.297C209.036-354.522 923.561 267.55 943.288 237.648c19.726-29.902-662.817-700.454-291.583-455.549C1022.94 27.004 1307.89 249.778 1288.17 279.68z"/></g></g><defs><linearGradient id="b" x1="587.421" x2="2694.35" y1="235.054" y2="835.557" gradientUnits="userSpaceOnUse"><stop stop-color="#7000FF"/><stop offset="1" stop-color="#FF00D6"/></linearGradient><linearGradient id="c" x1="854.162" x2="2199.38" y1="345.227" y2="-54.02" gradientUnits="userSpaceOnUse"><stop stop-color="#9E00FF"/><stop offset="1" stop-color="#FF00D6"/></linearGradient><linearGradient id="e" x1="1149.96" x2="2205.37" y1="-86.099" y2="571.283" gradientUnits="userSpaceOnUse"><stop stop-color="#FFE6E9"/><stop offset="1" stop-color="#FF003D"/></linearGradient><linearGradient id="g" x1="1009.03" x2="1852.08" y1="-56.75" y2="531.219" gradientUnits="userSpaceOnUse"><stop stop-color="#FFE6F2"/><stop offset="1" stop-color="#FF004D"/></linearGradient><linearGradient id="i" x1="1292.1" x2="742.589" y1="326.683" y2="-116.816" gradientUnits="userSpaceOnUse"><stop stop-color="#FFE6F2"/><stop offset="1" stop-color="#FF006B"/></linearGradient><filter id="a" width="3210.3" height="1961.15" x="-474.323" y="-748.543" color-interpolation-filters="sRGB" filterUnits="userSpaceOnUse"><feFlood flood-opacity="0" result="BackgroundImageFix"/><feBlend in="SourceGraphic" in2="BackgroundImageFix" result="shape"/><feGaussianBlur result="effect1_foregroundBlur_3296_68303" stdDeviation="205.597"/></filter><filter id="d" width="1831.57" height="1168.81" x="518.074" y="-460.293" color-interpolation-filters="sRGB" filterUnits="userSpaceOnUse"><feFlood flood-opacity="0" result="BackgroundImageFix"/><feBlend in="SourceGraphic" in2="BackgroundImageFix" result="shape"/><feGaussianBlur result="effect1_foregroundBlur_3296_68303" stdDeviation="71.959"/></filter><filter id="f" width="1766.09" height="911.542" x="264.353" y="-235.891" color-interpolation-filters="sRGB" filterUnits="userSpaceOnUse"><feFlood flood-opacity="0" result="BackgroundImageFix"/><feBlend in="SourceGraphic" in2="BackgroundImageFix" result="shape"/><feGaussianBlur result="effect1_foregroundBlur_3296_68303" stdDeviation="71.959"/></filter><filter id="h" width="1103.46" height="842.452" x="329.59" y="-415.515" color-interpolation-filters="sRGB" filterUnits="userSpaceOnUse"><feFlood flood-opacity="0" result="BackgroundImageFix"/><feBlend in="SourceGraphic" in2="BackgroundImageFix" result="shape"/><feGaussianBlur result="effect1_foregroundBlur_3296_68303" stdDeviation="71.959"/></filter></defs></svg>