<svg xmlns="http://www.w3.org/2000/svg" width="3077" height="2152" fill="none"><g filter="url(#a)" opacity=".6"><path fill="url(#b)" fill-opacity=".75" d="m1697.88 1073.97 852.85 323.7a177.113 177.113 0 0 1 91.38 78.5c67.46 119.44-20.57 266.92-157.71 264.24l-958.55-18.74a382.519 382.519 0 0 1-151.82-34.68l-483.719-221.64a382.41 382.41 0 0 1-187.063-185.56L448.855 736.223a382.377 382.377 0 0 1-35.726-146.244l-.476-11.469c-11.017-146.277 173.529-218.986 265.249-104.505l55.952 69.837a176.896 176.896 0 0 0 42.511 38.272l444.145 285.053a382.74 382.74 0 0 0 58.38 30.708l418.99 176.095z"/><path fill="url(#c)" fill-opacity=".6" d="m1697.88 1073.97 852.85 323.7a177.113 177.113 0 0 1 91.38 78.5c67.46 119.44-20.57 266.92-157.71 264.24l-958.55-18.74a382.519 382.519 0 0 1-151.82-34.68l-483.719-221.64a382.41 382.41 0 0 1-187.063-185.56L448.855 736.223a382.377 382.377 0 0 1-35.726-146.244l-.476-11.469c-11.017-146.277 173.529-218.986 265.249-104.505l55.952 69.837a176.896 176.896 0 0 0 42.511 38.272l444.145 285.053a382.74 382.74 0 0 0 58.38 30.708l418.99 176.095z"/></g><g filter="url(#d)"><path fill="url(#e)" d="M518.27 649.498c8.852-10.137 63.769 80.927 174.455 164.786C835.48 922.442 1032.12 1079.4 1260.39 1278.73c405.25 353.88 663.09 440.26 642.82 463.47-20.27 23.21-422.44 16.08-827.69-337.8-237.99-260.08-350.555-459.66-449.052-565.005-98.496-105.344-117.335-179.433-108.198-189.897z"/></g><g filter="url(#f)"><path fill="url(#g)" d="M827.902 733.36c13.865-14.305 190.588 141.192 404.608 331.65 87.06 77.46 196.38 144.77 288.72 234.27 319.35 309.52 708.09 118.39 688.58 138.51-19.5 20.13-597.89 201.35-917.24-108.17-319.355-309.53-484.173-576.135-464.668-596.26z"/></g><g filter="url(#h)"><path fill="url(#i)" d="M1377.56 1076.39c24.26-26.36 309.2 196.42 636.45 497.59 327.24 301.17-278.49-427.25-302.75-400.9-24.26 26.36 542.14 797.52 214.9 496.35-327.24-301.17-572.86-566.68-548.6-593.04z"/></g><defs><linearGradient id="b" x1="2062.11" x2="78.467" y1="1232.61" y2="302.583" gradientUnits="userSpaceOnUse"><stop stop-color="#001AFF"/><stop offset="1" stop-color="#00D1FF"/></linearGradient><linearGradient id="c" x1="1816.44" x2="424.664" y1="1081.16" y2="1259.92" gradientUnits="userSpaceOnUse"><stop stop-color="#00D1FF"/><stop offset="1" stop-color="#001AFF"/></linearGradient><linearGradient id="e" x1="1455.42" x2="518.843" y1="1459.57" y2="641.723" gradientUnits="userSpaceOnUse"><stop stop-color="#E5F3FF"/><stop offset="1" stop-color="#0500FF"/></linearGradient><linearGradient id="g" x1="1599.24" x2="861.187" y1="1453.16" y2="737.822" gradientUnits="userSpaceOnUse"><stop stop-color="#E5F3FF"/><stop offset="1" stop-color="#0500FF"/></linearGradient><linearGradient id="i" x1="1381.2" x2="1852.63" y1="1029.36" y2="1555.1" gradientUnits="userSpaceOnUse"><stop stop-color="#E5F3FF"/><stop offset="1" stop-color="#0500FF"/></linearGradient><filter id="a" width="3075.5" height="2145.15" x=".987" y="6.492" color-interpolation-filters="sRGB" filterUnits="userSpaceOnUse"><feFlood flood-opacity="0" result="BackgroundImageFix"/><feBlend in="SourceGraphic" in2="BackgroundImageFix" result="shape"/><feGaussianBlur result="effect1_foregroundBlur_3296_68416" stdDeviation="205.597"/></filter><filter id="d" width="1675.94" height="1389.09" x="372.3" y="504.805" color-interpolation-filters="sRGB" filterUnits="userSpaceOnUse"><feFlood flood-opacity="0" result="BackgroundImageFix"/><feBlend in="SourceGraphic" in2="BackgroundImageFix" result="shape"/><feGaussianBlur result="effect1_foregroundBlur_3296_68416" stdDeviation="71.959"/></filter><filter id="f" width="1672" height="1064.14" x="682.432" y="588.528" color-interpolation-filters="sRGB" filterUnits="userSpaceOnUse"><feFlood flood-opacity="0" result="BackgroundImageFix"/><feBlend in="SourceGraphic" in2="BackgroundImageFix" result="shape"/><feGaussianBlur result="effect1_foregroundBlur_3296_68416" stdDeviation="71.959"/></filter><filter id="h" width="1022.7" height="952.668" x="1231.99" y="930.352" color-interpolation-filters="sRGB" filterUnits="userSpaceOnUse"><feFlood flood-opacity="0" result="BackgroundImageFix"/><feBlend in="SourceGraphic" in2="BackgroundImageFix" result="shape"/><feGaussianBlur result="effect1_foregroundBlur_3296_68416" stdDeviation="71.959"/></filter></defs></svg>